<?xml version="1.0" encoding="utf-8"?>
<!-- Generator: Adobe Illustrator 26.4.1, SVG Export Plug-In . SVG Version: 6.00 Build 0)  -->
<svg version="1.1" xmlns="http://www.w3.org/2000/svg" xmlns:xlink="http://www.w3.org/1999/xlink" x="0px" y="0px"
	 viewBox="0 0 1884 400" style="enable-background:new 0 0 1884 400;" xml:space="preserve">
<style type="text/css">
	.st0{display:none;}
	.st1{display:inline;fill:#1A1A1A;}
	.st2{display:inline;}
	.st3{fill:#1A1A1A;}
	.st4{fill:#04F8E8;}
	.st5{fill:#09CCEA;}
	.st6{fill:#1374EE;}
	.st7{fill:#1848F0;}
	.st8{fill:#0EA0EC;}
	.st9{fill:#FFFFFF;}
</style>
<g id="a_x5F_clr1">
	<g>
		<g>
			<g>
				<g>
					<path class="st3" d="M404.2,286.2c7.7,0,16-2.2,20.1-3.8l-5.2,29.4c-3.9,2.1-13.2,4.7-24.5,4.7c-27.4,0-44.2-15-44.2-49.6v-44
						h-18.1v-27.4h18.1v-23.9l36.5-7.6v31.5h34.7v27.4h-34.7v43.2C386.9,281.4,392.8,286.2,404.2,286.2L404.2,286.2z"/>
					<path class="st3" d="M448.9,255.3c0-40.6,19.1-62.2,55.7-62.2c34.2,0,53.7,18,53.7,61.2v10.6h-73.7c1.1,15,9.6,22.4,30.2,22.4
						c14.3,0,30.4-3.5,38.2-6.2l-5.1,30.2c-7.4,2.3-22.3,5.3-36.4,5.3C467.3,316.7,448.9,295.5,448.9,255.3z M525.7,242.9
						c-0.8-16.3-8.3-23-20.3-23c-12.3,0-19.7,7.9-20.8,23H525.7z"/>
					<path class="st3" d="M643.9,316.7c-38.5,0-56.6-19.9-56.6-61.5c0-42,18.2-62,56.8-62c14.6,0,26.8,3.5,32,6l1.9,30
						c-6.1-2.8-18-6.3-28.8-6.3c-17.3,0-24.9,9-24.9,32.3c0,22.7,7.7,31.5,25.4,31.5c11.9,0,25-3.8,31.5-6.8l-5.3,30.9
						C670.7,313.2,658.5,316.7,643.9,316.7L643.9,316.7z"/>
					<path class="st3" d="M783.1,193.1c26.2,0,39.1,17.9,39.1,42.8v78.3h-36.5v-68.9c0-14.3-4.5-22.1-17.2-22.1
						c-13.4,0-18.2,7.8-18.2,22.1v68.9h-36.5V155.4l36.5-5.4v58.1C757.9,198.9,767.5,193.1,783.1,193.1L783.1,193.1z"/>
					<path class="st3" d="M864.9,152.5h111.5l1.9,32.6h-74v32.6h64.8v32.6h-64.8v63.9h-39.4V152.5z"/>
					<path class="st3" d="M1006.7,254.9c0-42.8,16.8-61.8,55.4-61.8c38.6,0,55.5,19,55.5,61.8s-16.8,61.8-55.5,61.8
						C1023.5,316.7,1006.7,297.7,1006.7,254.9z M1062.2,286.8c13.6,0,18.6-8,18.6-31.9s-4.9-31.9-18.6-31.9
						c-13.6,0-18.6,8-18.6,31.9S1048.5,286.8,1062.2,286.8z"/>
					<path class="st3" d="M1151.5,273.7v-78.1h36.5v69.1c0,14.2,4.5,21.9,17.2,21.9c13.4,0,18.2-7.7,18.2-21.9v-69.1h36.5v118.6
						H1228l-4.6-12.5c-7.4,9.2-17.1,15-32.8,15C1164.5,316.7,1151.5,298.7,1151.5,273.7z"/>
					<path class="st3" d="M1300.6,195.6h31.9l4.6,12.5c7.4-9.2,17.1-15,32.8-15c26.2,0,39.1,17.9,39.1,43v78.1h-36.5v-69.1
						c0-14.2-4.5-21.9-17.2-21.9c-13.4,0-18.2,7.7-18.2,21.9v69.1h-36.5V195.6z"/>
					<path class="st3" d="M1510.3,286.2c7.7,0,16-2.2,20.1-3.8l-5.2,29.4c-3.9,2.1-13.2,4.7-24.5,4.7c-27.4,0-44.2-15-44.2-49.6v-44
						h-18.1v-27.4h18.1v-23.9l36.5-7.6v31.5h34.7v27.4H1493v43.2C1493,281.4,1499,286.2,1510.3,286.2L1510.3,286.2z"/>
					<path class="st3" d="M1553.5,279.1c0-22.5,14.6-35.8,42.1-35.8h27.5v-3.9c0-11.8-5.7-16.4-22.8-16.4c-13.8,0-29.3,2.8-37.2,5
						l5.3-30.3c7.2-1.7,22.7-4,39.1-4c36.5,0,51.6,16.8,51.6,45.9v74.6h-31.3l-4.6-12.1c-4.4,8.6-14.4,14.6-31.4,14.6
						C1566.6,316.7,1553.5,302.4,1553.5,279.1z M1602.9,290.1c13.8,0,20.2-4.4,20.2-18.4v-7.1h-20.2c-10.2,0-14.8,4.4-14.8,12.7
						C1588.1,285.9,1592.9,290.1,1602.9,290.1z"/>
					<path class="st3" d="M1698.4,152.6h36.5v27.6h-36.5V152.6z M1698.4,195.6h36.5v118.6h-36.5V195.6z"/>
					<path class="st3" d="M1775.6,195.6h31.9l4.6,12.5c7.4-9.2,17.1-15,32.8-15c26.2,0,39.1,17.9,39.1,43v78.1h-36.5v-69.1
						c0-14.2-4.5-21.9-17.2-21.9c-13.4,0-18.2,7.7-18.2,21.9v69.1h-36.5V195.6z"/>
				</g>
			</g>
		</g>
		<g>
			<path class="st4" d="M230.3,63.8l-26.4-26.4L177.4,11l0,0c-14.6-14.6-38.3-14.6-52.9,0l0,0l26.4,26.4l26.4,26.4l26.4,26.4
				l-26.4,26.4l-26.4,26.4l-26.4,26.4l0,0c14.6,14.6,38.3,14.6,52.9,0l0,0l26.4-26.4l26.4-26.4l13.2-13.2c7.3-7.3,7.3-19.1,0-26.4
				L230.3,63.8z"/>
			<polygon class="st5" points="177.4,63.8 150.9,90.3 124.5,116.7 98,143.2 71.6,169.6 45.1,196.1 71.6,222.5 98,196.1 
				124.5,169.6 150.9,143.2 177.4,116.7 203.8,90.3 			"/>
			<path class="st6" d="M150.9,301.9l-13.2,13.2c-7.3,7.3-19.1,7.3-26.4,0L98,301.9c-16.8,5-28.1,14.6-28.1,25.6
				c0,16.1,24.4,29.2,54.5,29.2c30.1,0,54.5-13.1,54.5-29.2C179,316.4,167.7,306.8,150.9,301.9z"/>
			<path class="st7" d="M150.9,301.9L150.9,301.9L150.9,301.9c16.8,5,28.1,14.6,28.1,25.6c0,16.1-24.4,29.2-54.5,29.2
				c-30.1,0-54.5-13.1-54.5-29.2c0-11,11.3-20.6,28.1-25.6l0,0l0,0C59.3,308,31,327.2,31,349.9c0,27.7,41.9,50.1,93.5,50.1
				c51.6,0,93.5-22.4,93.5-50.1C218,327.2,189.7,308,150.9,301.9z"/>
			<path class="st8" d="M124.5,275.4L98,249l-26.4-26.4l-26.4-26.4l26.4-26.4L98,143.2l26.4-26.4l0,0c-14.6-14.6-38.3-14.6-52.9,0
				l0,0l-26.4,26.4l-26.4,26.4L5.5,182.9c-7.3,7.3-7.3,19.1,0,26.4l13.2,13.2L45.1,249l26.4,26.4L98,301.9l13.2,13.2
				c7.3,7.3,19.1,7.3,26.4,0l13.2-13.2L124.5,275.4z"/>
		</g>
	</g>
</g>
</svg>
