<?xml version="1.0" encoding="utf-8"?>
<!-- Generator: Adobe Illustrator 26.4.1, SVG Export Plug-In . SVG Version: 6.00 Build 0)  -->
<svg version="1.1" xmlns="http://www.w3.org/2000/svg" xmlns:xlink="http://www.w3.org/1999/xlink" x="0px" y="0px"
	 viewBox="0 0 1236 1300" style="enable-background:new 0 0 1236 1300;" xml:space="preserve">
<style type="text/css">
	.st1{display:inline;fill:#1A1A1A;}
	.st2{display:inline;}
	.st3{fill:#1A1A1A;}
	.st4{fill:#04F8E8;}
	.st5{fill:#09CCEA;}
	.st6{fill:#1374EE;}
	.st7{fill:#1848F0;}
	.st8{fill:#0EA0EC;}
	.st9{fill:#FFFFFF;}
</style>
<g id="v_x5F_crl2">
	<g>
		<g>
			<g>
				<g>
					<path class="st9" d="M57.7,1275.8c6.2,0,12.8-1.8,16-3l-4.1,23.4c-3.1,1.7-10.5,3.7-19.5,3.7c-21.8,0-35.1-12-35.1-39.5v-35
						H0.5v-21.8h14.4v-19l29.1-6v25.1h27.6v21.8H43.9v34.4C43.9,1271.9,48.6,1275.8,57.7,1275.8L57.7,1275.8z"/>
					<path class="st9" d="M93.3,1251.1c0-32.3,15.2-49.5,44.4-49.5c27.2,0,42.7,14.4,42.7,48.7v8.5h-58.6c0.9,11.9,7.7,17.8,24,17.8
						c11.4,0,24.2-2.8,30.4-5l-4.1,24.1c-5.9,1.8-17.7,4.2-29,4.2C107.9,1300,93.3,1283.2,93.3,1251.1z M154.4,1241.3
						c-0.7-13-6.6-18.3-16.2-18.3c-9.8,0-15.7,6.3-16.6,18.3H154.4z"/>
					<path class="st9" d="M248.5,1300c-30.6,0-45.1-15.8-45.1-49c0-33.4,14.5-49.4,45.2-49.4c11.6,0,21.4,2.8,25.4,4.8l1.5,23.9
						c-4.8-2.2-14.3-5-23-5c-13.8,0-19.8,7.1-19.8,25.7c0,18.1,6.2,25.1,20.2,25.1c9.5,0,19.9-3,25.1-5.4l-4.2,24.6
						C269.8,1297.2,260.1,1300,248.5,1300L248.5,1300z"/>
					<path class="st9" d="M359.3,1201.6c20.8,0,31.1,14.3,31.1,34.1v62.3h-29.1v-54.8c0-11.4-3.6-17.6-13.7-17.6
						c-10.7,0-14.5,6.2-14.5,17.6v54.8h-29.1v-126.4l29.1-4.3v46.2C339.2,1206.3,346.8,1201.6,359.3,1201.6L359.3,1201.6z"/>
					<path class="st9" d="M424.4,1169.3h88.8l1.5,25.9h-58.9v25.9h51.6v25.9h-51.6v50.9h-31.3V1169.3z"/>
					<path class="st9" d="M537.3,1250.8c0-34.1,13.4-49.2,44.1-49.2c30.7,0,44.1,15.1,44.1,49.2c0,34.1-13.4,49.2-44.1,49.2
						C550.7,1300,537.3,1284.9,537.3,1250.8z M581.4,1276.2c10.8,0,14.8-6.4,14.8-25.4c0-19-3.9-25.4-14.8-25.4
						c-10.8,0-14.8,6.4-14.8,25.4C566.6,1269.9,570.5,1276.2,581.4,1276.2z"/>
					<path class="st9" d="M652.5,1265.8v-62.2h29.1v55c0,11.3,3.6,17.5,13.7,17.5c10.7,0,14.5-6.2,14.5-17.5v-55h29.1v94.4h-25.4
						l-3.7-10c-5.9,7.3-13.6,11.9-26.1,11.9C662.9,1300,652.5,1285.7,652.5,1265.8z"/>
					<path class="st9" d="M771.2,1203.6h25.4l3.7,10c5.9-7.3,13.6-11.9,26.1-11.9c20.8,0,31.2,14.3,31.2,34.2v62.2h-29.1v-55
						c0-11.3-3.6-17.5-13.7-17.5c-10.7,0-14.5,6.2-14.5,17.5v55h-29.1V1203.6z"/>
					<path class="st9" d="M938.1,1275.8c6.2,0,12.8-1.8,16-3l-4.1,23.4c-3.1,1.7-10.5,3.7-19.5,3.7c-21.8,0-35.1-12-35.1-39.5v-35
						h-14.4v-21.8h14.4v-19l29.1-6v25.1h27.6v21.8h-27.6v34.4C924.3,1271.9,929.1,1275.8,938.1,1275.8L938.1,1275.8z"/>
					<path class="st9" d="M972.5,1270.1c0-17.9,11.6-28.5,33.5-28.5h21.9v-3.1c0-9.4-4.5-13.1-18.2-13.1c-11,0-23.3,2.2-29.6,4
						l4.2-24.1c5.7-1.4,18.1-3.2,31.1-3.2c29.1,0,41.1,13.4,41.1,36.5v59.4h-24.9l-3.7-9.6c-3.5,6.9-11.5,11.6-25,11.6
						C982.9,1300,972.5,1288.7,972.5,1270.1z M1011.8,1278.9c11,0,16-3.5,16-14.6v-5.7h-16c-8.1,0-11.8,3.5-11.8,10.1
						C1000,1275.5,1003.8,1278.9,1011.8,1278.9z"/>
					<path class="st9" d="M1087.8,1169.4h29.1v21.9h-29.1V1169.4z M1087.8,1203.6h29.1v94.4h-29.1V1203.6z"/>
					<path class="st9" d="M1149.2,1203.6h25.4l3.7,10c5.9-7.3,13.6-11.9,26.1-11.9c20.8,0,31.1,14.3,31.1,34.2v62.2h-29.1v-55
						c0-11.3-3.6-17.5-13.7-17.5c-10.7,0-14.5,6.2-14.5,17.5v55h-29.1V1203.6z"/>
				</g>
			</g>
		</g>
		<g>
			<path class="st4" d="M898.6,169.4l-70.2-70.2l-70.2-70.2l0,0C719.6-9.7,656.7-9.7,618,29.1l0,0l70.2,70.2l70.2,70.2l70.2,70.2
				l-70.2,70.2l-70.2,70.2L618,450l0,0c38.7,38.7,101.6,38.7,140.3,0l0,0l70.2-70.2l70.2-70.2l35.1-35.1c19.4-19.4,19.4-50.8,0-70.2
				L898.6,169.4z"/>
			<polygon class="st5" points="758.3,169.4 688.2,239.5 618,309.7 547.8,379.9 477.7,450 407.5,520.2 477.7,590.4 547.8,520.2 
				618,450 688.2,379.9 758.3,309.7 828.5,239.5 			"/>
			<path class="st6" d="M688.2,800.8l-35.1,35.1c-19.4,19.4-50.8,19.4-70.2,0l-35.1-35.1c-44.5,13.2-74.5,38.6-74.5,67.8
				c0,42.8,64.8,77.5,144.7,77.5c79.9,0,144.7-34.7,144.7-77.5C762.7,839.5,732.6,814.1,688.2,800.8z"/>
			<path class="st7" d="M688.2,800.8L688.2,800.8L688.2,800.8c44.5,13.2,74.5,38.6,74.5,67.8c0,42.8-64.8,77.5-144.7,77.5
				c-79.9,0-144.7-34.7-144.7-77.5c0-29.2,30.1-54.6,74.5-67.8l0,0l0,0C445,817.1,369.9,868,369.9,928.3
				c0,73.4,111.1,132.9,248.1,132.9c137,0,248.1-59.5,248.1-132.9C866.1,868,791,817.1,688.2,800.8z"/>
			<path class="st8" d="M618,730.7l-70.2-70.2l-70.2-70.2l-70.2-70.2l70.2-70.2l70.2-70.2l70.2-70.2l0,0
				c-38.7-38.7-101.6-38.7-140.3,0l0,0l-70.2,70.2L337.4,450l-35.1,35.1c-19.4,19.4-19.4,50.8,0,70.2l35.1,35.1l70.2,70.2l70.2,70.2
				l70.2,70.2l35.1,35.1c19.4,19.4,50.8,19.4,70.2,0l35.1-35.1L618,730.7z"/>
		</g>
	</g>
</g>
</svg>
